HIERARCHY
ROOT hips
{
  OFFSET 0 0 0
  CHANNELS 6 Xposition Yposition Zposition Zrotation Xrotation Yrotation
  JOINT spine
  {
    OFFSET 0 0.113684 0
    CHANNELS 3 Zrotation Xrotation Yrotation
    JOINT chest
    {
      OFFSET 0 0.170526 0
      CHANNELS 3 Zrotation Xrotation Yrotation
      JOINT upperChest
      {
        OFFSET 0 0.113684 0
        CHANNELS 3 Zrotation Xrotation Yrotation
        JOINT neck
        {
          OFFSET 0 0.132632 0
          CHANNELS 3 Zrotation Xrotation Yrotation
          JOINT head
          {
            OFFSET 0 0.151579 0
            CHANNELS 3 Zrotation Xrotation Yrotation
            End Site
            {
              OFFSET 0 0.132632 0
            }
          }
        }
        JOINT leftShoulder
        {
          OFFSET -0.075789 0.094737 0
          CHANNELS 3 Zrotation Xrotation Yrotation
          JOINT leftUpperArm
          {
            OFFSET -0.170526 0 0
            CHANNELS 3 Zrotation Xrotation Yrotation
            JOINT leftLowerArm
            {
              OFFSET -0.265263 0 0
              CHANNELS 3 Zrotation Xrotation Yrotation
              JOINT leftHand
              {
                OFFSET -0.227368 0 0
                CHANNELS 3 Zrotation Xrotation Yrotation
                End Site
                {
                  OFFSET -0.094737 0 0
                }
              }
            }
          }
        }
        JOINT rightShoulder
        {
          OFFSET 0.075789 0.094737 0
          CHANNELS 3 Zrotation Xrotation Yrotation
          JOINT rightUpperArm
          {
            OFFSET 0.170526 0 0
            CHANNELS 3 Zrotation Xrotation Yrotation
            JOINT rightLowerArm
            {
              OFFSET 0.265263 0 0
              CHANNELS 3 Zrotation Xrotation Yrotation
              JOINT rightHand
              {
                OFFSET 0.227368 0 0
                CHANNELS 3 Zrotation Xrotation Yrotation
                End Site
                {
                  OFFSET 0.094737 0 0
                }
              }
            }
          }
        }
      }
    }
  }
  JOINT leftUpperLeg
  {
    OFFSET -0.104211 -0.075789 0
    CHANNELS 3 Zrotation Xrotation Yrotation
    JOINT leftLowerLeg
    {
      OFFSET 0 -0.397895 0
      CHANNELS 3 Zrotation Xrotation Yrotation
      JOINT leftFoot
      {
        OFFSET 0 -0.378947 0
        CHANNELS 3 Zrotation Xrotation Yrotation
        JOINT leftToes
        {
          OFFSET 0 -0.047368 0.132632
          CHANNELS 3 Zrotation Xrotation Yrotation
          End Site
          {
            OFFSET 0 0 0.075789
          }
        }
      }
    }
  }
  JOINT rightUpperLeg
  {
    OFFSET 0.104211 -0.075789 0
    CHANNELS 3 Zrotation Xrotation Yrotation
    JOINT rightLowerLeg
    {
      OFFSET 0 -0.397895 0
      CHANNELS 3 Zrotation Xrotation Yrotation
      JOINT rightFoot
      {
        OFFSET 0 -0.378947 0
        CHANNELS 3 Zrotation Xrotation Yrotation
        JOINT rightToes
        {
          OFFSET 0 -0.047368 0.132632
          CHANNELS 3 Zrotation Xrotation Yrotation
          End Site
          {
            OFFSET 0 0 0.075789
          }
        }
      }
    }
  }
}
MOTION
Frames: 10
Frame Time: 0.033333
0 0.005403 0 -2.415699 -0.084319 1.998163 0 0 0 1.451033 8.322892 1.036925 -3.295915 8.305805 3.221041 1.762085 -8.39117 -1.923527 2.191422 5.000378 -1.909523 -0.001494 0.002688 4.999957 -75.415465 -3.153488 2.11581 -5.814284 5.194019 -29.251398 -1.064333 1.93476 -12.127353 0 0 0 63.599799 12.835425 22.527353 11.284495 -19.670924 40.482864 0.921211 1.656257 18.484289 2.991028 -26.648423 0.688745 0.036215 9.723245 -0.239186 -1.40671 -9.210125 -2.220624 0 0 0 3.954219 20.520635 -0.742733 0.017219 5.029066 -0.23016 2.423456 -8.95504 -0.482535 0.131088 -16.660166 0.457086
0 0.001462 0 -2.379976 -0.08221 1.976324 0 0 0 1.343148 8.436373 1.220711 -3.376936 8.413274 3.766847 1.766869 -8.517442 -2.278637 2.247742 4.997502 -2.264999 -0.001378 0.002693 4.963709 -75.424944 -3.263193 2.256787 -5.640472 5.332799 -29.050921 -1.098269 2.000804 -10.618758 0 0 -0.063829 62.598158 13.282675 23.645394 11.71066 -20.875802 41.329321 0.887252 1.590118 19.992899 2.73969 -30.412681 0.726997 0.127287 21.048079 -0.375868 -1.094628 -14.053316 -2.310856 0 0 0 3.544295 16.165992 -0.527829 0.0795 13.90347 -0.355669 2.612265 -10.976755 -0.431798 0.116053 -15.738632 0.427865
0 0 0 -2.277851 -0.076092 1.912978 0 0 0 1.21211 8.641658 1.325355 -3.342978 8.614777 4.074804 1.714816 -8.727742 -2.48062 2.225728 5.108704 -2.466752 -0.001371 0.00258 4.860024 -75.427864 -3.298274 2.301984 -5.518026 5.3776 -28.918381 -1.130109 2.062678 -9.206687 0.000115 0.000114 -0.24637 62.250419 13.429095 24.027597 11.994976 -21.240674 41.837564 0.855418 1.528298 21.404904 2.360936 -31.208554 0.644229 0.175222 26.874708 -0.407923 -0.572077 -12.604968 -2.201817 0 0 0 3.09947 12.114044 -0.350407 0.167292 22.55783 -0.458576 2.554327 -9.043616 -0.652594 0.082139 -13.361334 0.355516
0 0.001433 0 -2.116635 -0.066953 1.812331 0 0 0 1.067385 8.908844 1.348967 -3.196661 8.881195 4.13864 1.609309 -8.991654 -2.526888 2.121341 5.285745 -2.513128 -0.001367 0.002582 4.696247 -75.417281 -3.138455 2.09609 -5.440368 5.167645 -28.864247 -1.15894 2.118891 -7.923534 0.000116 0.000343 -0.534457 62.615841 13.274024 23.624122 12.125314 -20.821637 41.995611 0.826641 1.472098 22.688157 1.900888 -30.424337 0.504585 0.173894 29.855389 -0.368462 -0.000206 -8.634316 -1.993936 0 0 0 2.614029 8.750197 -0.218193 0.255214 30.442093 -0.524641 2.329347 -4.390438 -0.89334 0.046137 -10.109001 0.262803
0 0.005348 0 -1.903753 -0.055853 1.678243 0 0 0 0.911302 9.204895 1.310515 -2.951643 9.1789 4.014665 1.45668 -9.278261 -2.455661 1.941993 5.480586 -2.443097 -0.001244 0.002474 4.479949 -75.381441 -2.701694 1.533685 -5.402362 4.590509 -28.895208 -1.184199 2.167995 -6.801394 0.000234 0.000571 -0.914913 63.734351 12.763237 22.360913 12.09709 -19.515407 41.779309 0.80129 1.422893 23.810297 1.385618 -28.539425 0.343321 0.134036 30.844337 -0.279473 0.493904 -5.025091 -1.747688 0 0 0 2.067336 5.849829 -0.120099 0.325084 38.03572 -0.547185 2.02361 1.322682 -0.930218 0.019132 -6.5631 0.167527
0 0.011126 0 -1.646424 -0.043539 1.514478 0 0 0 0.75308 9.497188 1.212809 -2.611836 9.475284 3.711284 1.260735 -9.556542 -2.273749 1.685523 5.645083 -2.263933 -0.001229 0.002248 4.218729 -75.306436 -2.041292 0.682817 -5.427897 3.712754 -29.123148 -1.205131 2.208657 -5.872524 0.000353 0.000798 -1.374554 65.472457 11.837808 20.284316 11.928857 -17.322257 41.20694 0.780459 1.382254 24.739097 0.832987 -25.816101 0.18538 0.074341 30.274068 -0.164226 0.843073 -4.45812 -1.485039 0 0 0 1.443135 3.11429 -0.049321 0.345831 45.564317 -0.50233 1.711944 6.757385 -0.683942 0.004821 -3.306915 0.083597
0 0.018149 0 -1.352055 -0.031335 1.32489 0 0 0 0.59101 9.751506 1.079108 -2.196012 9.7345 3.297283 1.02918 -9.79519 -2.026961 1.365262 5.731319 -2.02217 -0.001105 0.002141 3.920025 -75.173118 -1.200705 -0.402621 -5.536033 2.587709 -29.546692 -1.220956 2.239533 -5.169278 0.000475 0.001024 -1.900243 67.486399 10.511499 17.643781 11.658834 -14.53636 40.363296 0.764607 1.351404 25.442441 0.255815 -22.400132 0.048901 0.014071 28.364359 -0.044924 1.112925 -5.963199 -1.215577 0 0 0 0.721173 -1.042236 0.001517 0.267553 54.108509 -0.346508 1.499123 11.336271 -0.222734 0.000417 -0.924191 0.023266
0 0.025795 0 -1.028095 -0.019963 1.113711 0 0 0 0.423009 9.934157 0.929796 -1.724691 9.922214 2.833971 0.77011 -9.962949 -1.754885 0.994681 5.691094 -1.757713 -0.000977 0.001918 3.591311 -74.961883 -0.217306 -1.679171 -5.719194 1.259845 -30.08746 -1.230956 2.259029 -4.723633 0.000717 0.00136 -2.478586 69.406611 8.910398 14.801226 11.32156 -11.597636 39.362746 0.754522 1.331857 25.888099 -0.336938 -18.363995 -0.052142 -0.03132 25.208248 0.059726 1.381274 -6.842326 -0.949295 0 0 0 -0.091093 -7.564599 -0.005448 -0.096375 63.65939 0.093546 1.498624 16.246358 0.315243 0 0 0
0 0.033445 0 -0.681996 -0.010537 0.884726 0 0 0 0.250047 10.013243 0.772505 -1.212284 10.00572 2.345107 0.490694 -10.029113 -1.47186 0.587938 5.601786 -1.484731 -0.000854 0.00181 3.240054 -74.654146 0.87585 -3.111012 -5.969843 -0.232527 -30.714388 -1.234489 2.265862 -4.567944 0.000848 0.001697 -3.096634 71.020044 7.210345 12.054469 10.931948 -8.815536 38.287404 0.7511 1.325097 26.04375 -0.938176 -13.702825 -0.106264 -0.05226 20.766424 0.135161 1.641756 -7.061361 -0.701421 0 0 0 -0.942038 -15.446498 -0.121285 -1.231972 72.358537 1.281335 1.56337 21.781749 0.868918 0 0 0
0 0.04048 0 -0.320956 -0.003632 0.641938 0 0 0 0.073432 9.977332 0.610945 -0.672934 9.973537 1.842314 0.197814 -9.983412 -1.183177 0.161719 5.577414 -1.207146 -0.000842 0.001584 2.873798 -74.234988 2.047694 -4.668206 -6.280674 -1.855986 -31.411392 -1.230956 2.259029 -4.723635 0.001098 0.002028 -3.741048 72.277608 5.552154 9.560414 10.494954 -6.322589 37.184355 0.754496 1.331969 25.888097 -1.541152 -8.906337 -0.109341 -0.051533 15.871498 0.177956 1.830313 -6.464338 -0.462885 -0.000192 -0.498589 -0.017763 -1.787152 -23.750271 -0.363886 -4.155631 79.014285 4.224579 1.497566 27.233367 1.452599 0 0 0
